<svg width="224" height="24" viewBox="0 0 224 24" fill="none" xmlns="http://www.w3.org/2000/svg">
<path d="M9.26373 0.0384937C4.3734 0.707751 0.702688 4.53208 0.0869562 9.59931C-0.161705 11.6326 0.122479 13.5639 0.945428 15.3868C2.59725 19.0581 6.10218 20.9321 9.3999 19.9059C11.9694 19.1091 13.9113 16.4257 13.9113 13.6658C13.9113 13.0603 13.7811 12.7799 13.491 12.7544C13.2956 12.7353 13.1357 12.85 11.5964 14.0738C9.79065 15.5143 9.55975 15.6545 9.05059 15.5907C8.12107 15.4696 7.41061 14.4307 6.94881 12.5185C6.81856 11.9895 6.78896 11.6899 6.76528 10.7657C6.73567 9.52919 6.8008 8.87906 7.07314 7.86561C7.9849 4.46834 10.7853 1.89967 14.4086 1.14755C14.7283 1.07744 15.0007 1.0137 15.0125 0.994575C15.048 0.956332 14.1718 0.612143 13.5087 0.408179C12.5259 0.108606 11.6911 -0.00612342 10.5189 0.000250451C9.92682 0.00662433 9.36437 0.025746 9.26373 0.0384937Z" fill="#4EA174"/>
<path d="M15.717 3.92018C13.9586 4.17513 12.8337 4.7679 11.7325 6.01718C10.6905 7.19635 10.1103 8.66234 10.0984 10.1602C10.0925 10.9251 10.1458 11.1099 10.3945 11.2119C10.6076 11.3011 10.726 11.231 11.8213 10.3705C12.366 9.93711 13.112 9.35072 13.4672 9.06389C14.2369 8.45838 14.4441 8.33727 14.7993 8.27353C15.9893 8.07594 16.9899 9.5738 17.2918 12.0086C17.3747 12.7034 17.3274 14.2841 17.1971 14.9725C16.8537 16.8209 16.09 18.4271 14.9177 19.7784C13.6093 21.2762 11.543 22.4745 9.47679 22.9271L8.92619 23.0482L9.21037 23.1757C10.5662 23.8067 12.437 24.1062 14.0474 23.966C15.6874 23.8258 16.8893 23.4625 18.2865 22.704C19.3403 22.1367 20.0745 21.5822 20.8856 20.7408C22.123 19.4661 22.8867 18.204 23.461 16.5022C23.8991 15.1956 24.0057 14.4881 23.9998 12.901C23.9998 11.7664 23.9761 11.4668 23.8695 10.9314C23.1354 7.38119 20.8797 4.7934 17.878 4.06678C17.3984 3.95205 16.1018 3.86281 15.717 3.92018Z" fill="#4EA174"/>
<path d="M33.836 18C33.716 18 33.614 17.958 33.53 17.874C33.446 17.79 33.404 17.688 33.404 17.568V5.85C33.404 5.718 33.446 5.61 33.53 5.526C33.614 5.442 33.716 5.4 33.836 5.4H38.498C39.95 5.4 41.096 5.736 41.936 6.408C42.776 7.08 43.196 8.058 43.196 9.342C43.196 10.23 42.974 10.968 42.53 11.556C42.098 12.144 41.516 12.57 40.784 12.834L43.412 17.424C43.448 17.496 43.466 17.562 43.466 17.622C43.466 17.73 43.424 17.82 43.34 17.892C43.268 17.964 43.184 18 43.088 18H41.45C41.246 18 41.09 17.946 40.982 17.838C40.874 17.73 40.79 17.622 40.73 17.514L38.408 13.248H35.906V17.568C35.906 17.688 35.864 17.79 35.78 17.874C35.708 17.958 35.606 18 35.474 18H33.836ZM35.906 11.214H38.444C39.176 11.214 39.722 11.052 40.082 10.728C40.442 10.392 40.622 9.924 40.622 9.324C40.622 8.724 40.442 8.256 40.082 7.92C39.734 7.572 39.188 7.398 38.444 7.398H35.906V11.214ZM48.1459 18.18C46.8139 18.18 45.7579 17.796 44.9779 17.028C44.1979 16.26 43.7779 15.168 43.7179 13.752C43.7059 13.632 43.6999 13.482 43.6999 13.302C43.6999 13.11 43.7059 12.96 43.7179 12.852C43.7659 11.952 43.9699 11.172 44.3299 10.512C44.7019 9.852 45.2119 9.348 45.8599 9C46.5079 8.64 47.2699 8.46 48.1459 8.46C49.1179 8.46 49.9339 8.664 50.5939 9.072C51.2539 9.468 51.7519 10.026 52.0879 10.746C52.4239 11.454 52.5919 12.276 52.5919 13.212V13.59C52.5919 13.71 52.5499 13.812 52.4659 13.896C52.3819 13.98 52.2739 14.022 52.1419 14.022H46.1659C46.1659 14.022 46.1659 14.04 46.1659 14.076C46.1659 14.112 46.1659 14.142 46.1659 14.166C46.1779 14.586 46.2559 14.976 46.3999 15.336C46.5559 15.684 46.7779 15.966 47.0659 16.182C47.3659 16.398 47.7199 16.506 48.1279 16.506C48.4639 16.506 48.7459 16.458 48.9739 16.362C49.2019 16.254 49.3879 16.134 49.5319 16.002C49.6759 15.87 49.7779 15.762 49.8379 15.678C49.9459 15.534 50.0299 15.45 50.0899 15.426C50.1619 15.39 50.2639 15.372 50.3959 15.372H51.9439C52.0639 15.372 52.1599 15.408 52.2319 15.48C52.3159 15.552 52.3519 15.642 52.3399 15.75C52.3279 15.942 52.2259 16.176 52.0339 16.452C51.8539 16.728 51.5899 16.998 51.2419 17.262C50.8939 17.526 50.4559 17.748 49.9279 17.928C49.4119 18.096 48.8179 18.18 48.1459 18.18ZM46.1659 12.51H50.1439V12.456C50.1439 11.988 50.0659 11.58 49.9099 11.232C49.7539 10.884 49.5259 10.608 49.2259 10.404C48.9259 10.2 48.5659 10.098 48.1459 10.098C47.7259 10.098 47.3659 10.2 47.0659 10.404C46.7659 10.608 46.5379 10.884 46.3819 11.232C46.2379 11.58 46.1659 11.988 46.1659 12.456V12.51ZM57.6174 18C56.8974 18 56.2914 17.874 55.7994 17.622C55.3074 17.37 54.9414 16.998 54.7014 16.506C54.4614 16.002 54.3414 15.378 54.3414 14.634V10.548H52.9194C52.7994 10.548 52.6974 10.506 52.6134 10.422C52.5294 10.338 52.4874 10.236 52.4874 10.116V9.072C52.4874 8.952 52.5294 8.85 52.6134 8.766C52.6974 8.682 52.7994 8.64 52.9194 8.64H54.3414V5.652C54.3414 5.532 54.3774 5.43 54.4494 5.346C54.5334 5.262 54.6414 5.22 54.7734 5.22H56.2314C56.3514 5.22 56.4534 5.262 56.5374 5.346C56.6214 5.43 56.6634 5.532 56.6634 5.652V8.64H58.9134C59.0334 8.64 59.1354 8.682 59.2194 8.766C59.3034 8.85 59.3454 8.952 59.3454 9.072V10.116C59.3454 10.236 59.3034 10.338 59.2194 10.422C59.1354 10.506 59.0334 10.548 58.9134 10.548H56.6634V14.454C56.6634 14.946 56.7474 15.33 56.9154 15.606C57.0954 15.882 57.4014 16.02 57.8334 16.02H59.0754C59.1954 16.02 59.2974 16.062 59.3814 16.146C59.4654 16.23 59.5074 16.332 59.5074 16.452V17.568C59.5074 17.688 59.4654 17.79 59.3814 17.874C59.2974 17.958 59.1954 18 59.0754 18H57.6174ZM63.4982 18.18C62.7662 18.18 62.1302 18.018 61.5902 17.694C61.0622 17.358 60.6542 16.89 60.3662 16.29C60.0782 15.678 59.9342 14.958 59.9342 14.13V9.072C59.9342 8.952 59.9762 8.85 60.0602 8.766C60.1442 8.682 60.2462 8.64 60.3662 8.64H61.9502C62.0822 8.64 62.1842 8.682 62.2562 8.766C62.3402 8.85 62.3822 8.952 62.3822 9.072V14.022C62.3822 15.51 63.0362 16.254 64.3442 16.254C64.9682 16.254 65.4602 16.056 65.8202 15.66C66.1922 15.264 66.3782 14.718 66.3782 14.022V9.072C66.3782 8.952 66.4202 8.85 66.5042 8.766C66.5882 8.682 66.6902 8.64 66.8102 8.64H68.3942C68.5142 8.64 68.6162 8.682 68.7002 8.766C68.7842 8.85 68.8262 8.952 68.8262 9.072V17.568C68.8262 17.688 68.7842 17.79 68.7002 17.874C68.6162 17.958 68.5142 18 68.3942 18H66.9362C66.8042 18 66.6962 17.958 66.6122 17.874C66.5402 17.79 66.5042 17.688 66.5042 17.568V16.83C66.1802 17.25 65.7782 17.58 65.2982 17.82C64.8182 18.06 64.2182 18.18 63.4982 18.18ZM70.5559 18C70.4359 18 70.3339 17.958 70.2499 17.874C70.1659 17.79 70.1239 17.688 70.1239 17.568V9.09C70.1239 8.958 70.1659 8.85 70.2499 8.766C70.3339 8.682 70.4359 8.64 70.5559 8.64H72.0139C72.1339 8.64 72.2359 8.682 72.3199 8.766C72.4159 8.85 72.4639 8.958 72.4639 9.09V9.828C72.7399 9.444 73.0939 9.15 73.5259 8.946C73.9699 8.742 74.4799 8.64 75.0559 8.64H75.7939C75.9259 8.64 76.0279 8.682 76.0999 8.766C76.1839 8.85 76.2259 8.952 76.2259 9.072V10.368C76.2259 10.488 76.1839 10.59 76.0999 10.674C76.0279 10.758 75.9259 10.8 75.7939 10.8H74.3899C73.8139 10.8 73.3639 10.962 73.0399 11.286C72.7279 11.61 72.5719 12.054 72.5719 12.618V17.568C72.5719 17.688 72.5299 17.79 72.4459 17.874C72.3619 17.958 72.2539 18 72.1219 18H70.5559ZM76.9817 18C76.8617 18 76.7597 17.958 76.6757 17.874C76.5917 17.79 76.5497 17.688 76.5497 17.568V9.072C76.5497 8.952 76.5917 8.85 76.6757 8.766C76.7597 8.682 76.8617 8.64 76.9817 8.64H78.4577C78.5777 8.64 78.6797 8.682 78.7637 8.766C78.8477 8.85 78.8897 8.952 78.8897 9.072V9.81C79.2017 9.426 79.5977 9.108 80.0777 8.856C80.5697 8.592 81.1757 8.46 81.8957 8.46C82.6277 8.46 83.2637 8.628 83.8037 8.964C84.3437 9.288 84.7577 9.75 85.0457 10.35C85.3457 10.95 85.4957 11.67 85.4957 12.51V17.568C85.4957 17.688 85.4537 17.79 85.3697 17.874C85.2857 17.958 85.1837 18 85.0637 18H83.4797C83.3597 18 83.2577 17.958 83.1737 17.874C83.0897 17.79 83.0477 17.688 83.0477 17.568V12.618C83.0477 11.922 82.8737 11.376 82.5257 10.98C82.1897 10.584 81.6977 10.386 81.0497 10.386C80.4257 10.386 79.9277 10.584 79.5557 10.98C79.1837 11.376 78.9977 11.922 78.9977 12.618V17.568C78.9977 17.688 78.9557 17.79 78.8717 17.874C78.7877 17.958 78.6857 18 78.5657 18H76.9817ZM87.3501 18C87.2301 18 87.1281 17.958 87.0441 17.874C86.9601 17.79 86.9181 17.688 86.9181 17.568V5.85C86.9181 5.718 86.9601 5.61 87.0441 5.526C87.1281 5.442 87.2301 5.4 87.3501 5.4H92.1741C93.1101 5.4 93.9261 5.55 94.6221 5.85C95.3181 6.138 95.8581 6.582 96.2421 7.182C96.6261 7.77 96.8181 8.508 96.8181 9.396C96.8181 10.296 96.6261 11.04 96.2421 11.628C95.8581 12.204 95.3181 12.636 94.6221 12.924C93.9261 13.212 93.1101 13.356 92.1741 13.356H89.4921V17.568C89.4921 17.688 89.4501 17.79 89.3661 17.874C89.2941 17.958 89.1921 18 89.0601 18H87.3501ZM89.4561 11.358H92.0841C92.7801 11.358 93.3141 11.196 93.6861 10.872C94.0581 10.536 94.2441 10.044 94.2441 9.396C94.2441 8.796 94.0701 8.316 93.7221 7.956C93.3741 7.584 92.8281 7.398 92.0841 7.398H89.4561V11.358ZM97.9194 18C97.7994 18 97.6974 17.958 97.6134 17.874C97.5294 17.79 97.4874 17.688 97.4874 17.568V9.072C97.4874 8.952 97.5294 8.85 97.6134 8.766C97.6974 8.682 97.7994 8.64 97.9194 8.64H99.4134C99.5454 8.64 99.6474 8.682 99.7194 8.766C99.8034 8.85 99.8454 8.952 99.8454 9.072V17.568C99.8454 17.688 99.8034 17.79 99.7194 17.874C99.6474 17.958 99.5454 18 99.4134 18H97.9194ZM97.8474 7.092C97.7154 7.092 97.6074 7.056 97.5234 6.984C97.4514 6.9 97.4154 6.792 97.4154 6.66V5.364C97.4154 5.244 97.4514 5.142 97.5234 5.058C97.6074 4.974 97.7154 4.932 97.8474 4.932H99.4854C99.6174 4.932 99.7254 4.974 99.8094 5.058C99.8934 5.142 99.9354 5.244 99.9354 5.364V6.66C99.9354 6.792 99.8934 6.9 99.8094 6.984C99.7254 7.056 99.6174 7.092 99.4854 7.092H97.8474ZM101.603 18C101.483 18 101.381 17.958 101.297 17.874C101.213 17.79 101.171 17.688 101.171 17.568V5.652C101.171 5.532 101.213 5.43 101.297 5.346C101.381 5.262 101.483 5.22 101.603 5.22H103.097C103.217 5.22 103.319 5.262 103.403 5.346C103.487 5.43 103.529 5.532 103.529 5.652V17.568C103.529 17.688 103.487 17.79 103.403 17.874C103.319 17.958 103.217 18 103.097 18H101.603ZM108.977 18.18C108.017 18.18 107.207 18.012 106.547 17.676C105.899 17.34 105.401 16.866 105.053 16.254C104.717 15.642 104.525 14.928 104.477 14.112C104.465 13.896 104.459 13.632 104.459 13.32C104.459 13.008 104.465 12.744 104.477 12.528C104.525 11.7 104.723 10.986 105.071 10.386C105.431 9.774 105.935 9.3 106.583 8.964C107.243 8.628 108.041 8.46 108.977 8.46C109.913 8.46 110.705 8.628 111.353 8.964C112.013 9.3 112.517 9.774 112.865 10.386C113.225 10.986 113.429 11.7 113.477 12.528C113.489 12.744 113.495 13.008 113.495 13.32C113.495 13.632 113.489 13.896 113.477 14.112C113.429 14.928 113.231 15.642 112.883 16.254C112.547 16.866 112.049 17.34 111.389 17.676C110.741 18.012 109.937 18.18 108.977 18.18ZM108.977 16.398C109.613 16.398 110.105 16.2 110.453 15.804C110.801 15.396 110.993 14.802 111.029 14.022C111.041 13.842 111.047 13.608 111.047 13.32C111.047 13.032 111.041 12.798 111.029 12.618C110.993 11.85 110.801 11.262 110.453 10.854C110.105 10.446 109.613 10.242 108.977 10.242C108.341 10.242 107.849 10.446 107.501 10.854C107.153 11.262 106.961 11.85 106.925 12.618C106.913 12.798 106.907 13.032 106.907 13.32C106.907 13.608 106.913 13.842 106.925 14.022C106.961 14.802 107.153 15.396 107.501 15.804C107.849 16.2 108.341 16.398 108.977 16.398ZM118.569 18C117.849 18 117.243 17.874 116.751 17.622C116.259 17.37 115.893 16.998 115.653 16.506C115.413 16.002 115.293 15.378 115.293 14.634V10.548H113.871C113.751 10.548 113.649 10.506 113.565 10.422C113.481 10.338 113.439 10.236 113.439 10.116V9.072C113.439 8.952 113.481 8.85 113.565 8.766C113.649 8.682 113.751 8.64 113.871 8.64H115.293V5.652C115.293 5.532 115.329 5.43 115.401 5.346C115.485 5.262 115.593 5.22 115.725 5.22H117.183C117.303 5.22 117.405 5.262 117.489 5.346C117.573 5.43 117.615 5.532 117.615 5.652V8.64H119.865C119.985 8.64 120.087 8.682 120.171 8.766C120.255 8.85 120.297 8.952 120.297 9.072V10.116C120.297 10.236 120.255 10.338 120.171 10.422C120.087 10.506 119.985 10.548 119.865 10.548H117.615V14.454C117.615 14.946 117.699 15.33 117.867 15.606C118.047 15.882 118.353 16.02 118.785 16.02H120.027C120.147 16.02 120.249 16.062 120.333 16.146C120.417 16.23 120.459 16.332 120.459 16.452V17.568C120.459 17.688 120.417 17.79 120.333 17.874C120.249 17.958 120.147 18 120.027 18H118.569Z" fill="black"/>
<path d="M130.43 16.5C130.335 16.5 130.261 16.474 130.209 16.422C130.157 16.3613 130.131 16.2877 130.131 16.201V7.712C130.131 7.61667 130.157 7.543 130.209 7.491C130.261 7.43033 130.335 7.4 130.43 7.4H133.381C134.274 7.4 134.993 7.53433 135.539 7.803C136.085 8.07167 136.484 8.47033 136.735 8.999C136.986 9.519 137.116 10.1603 137.125 10.923C137.134 11.313 137.138 11.6553 137.138 11.95C137.138 12.2447 137.134 12.5827 137.125 12.964C137.108 13.7613 136.973 14.4243 136.722 14.953C136.479 15.473 136.089 15.863 135.552 16.123C135.023 16.3743 134.321 16.5 133.446 16.5H130.43ZM131.405 15.395H133.381C133.979 15.395 134.456 15.3127 134.811 15.148C135.166 14.9833 135.422 14.719 135.578 14.355C135.743 13.991 135.829 13.51 135.838 12.912C135.855 12.652 135.864 12.4267 135.864 12.236C135.864 12.0367 135.864 11.8417 135.864 11.651C135.864 11.4517 135.855 11.2263 135.838 10.975C135.821 10.1343 135.621 9.51467 135.24 9.116C134.859 8.70867 134.217 8.505 133.316 8.505H131.405V15.395ZM140.836 16.63C139.943 16.63 139.233 16.357 138.704 15.811C138.175 15.2563 137.885 14.5023 137.833 13.549C137.824 13.4363 137.82 13.2933 137.82 13.12C137.82 12.938 137.824 12.7907 137.833 12.678C137.868 12.0627 138.011 11.5253 138.262 11.066C138.513 10.598 138.856 10.2383 139.289 9.987C139.731 9.73567 140.247 9.61 140.836 9.61C141.495 9.61 142.045 9.74867 142.487 10.026C142.938 10.3033 143.28 10.6977 143.514 11.209C143.748 11.7203 143.865 12.3183 143.865 13.003V13.224C143.865 13.3193 143.835 13.393 143.774 13.445C143.722 13.497 143.653 13.523 143.566 13.523H139.068C139.068 13.5317 139.068 13.549 139.068 13.575C139.068 13.601 139.068 13.6227 139.068 13.64C139.085 13.9953 139.163 14.329 139.302 14.641C139.441 14.9443 139.64 15.1913 139.9 15.382C140.16 15.5727 140.472 15.668 140.836 15.668C141.148 15.668 141.408 15.6203 141.616 15.525C141.824 15.4297 141.993 15.3257 142.123 15.213C142.253 15.0917 142.34 15.0007 142.383 14.94C142.461 14.8273 142.522 14.7623 142.565 14.745C142.608 14.719 142.678 14.706 142.773 14.706H143.397C143.484 14.706 143.553 14.732 143.605 14.784C143.666 14.8273 143.692 14.8923 143.683 14.979C143.674 15.109 143.605 15.2693 143.475 15.46C143.345 15.642 143.159 15.824 142.916 16.006C142.673 16.188 142.379 16.3397 142.032 16.461C141.685 16.5737 141.287 16.63 140.836 16.63ZM139.068 12.626H142.63V12.587C142.63 12.197 142.556 11.8503 142.409 11.547C142.27 11.2437 142.067 11.0053 141.798 10.832C141.529 10.65 141.209 10.559 140.836 10.559C140.463 10.559 140.143 10.65 139.874 10.832C139.614 11.0053 139.415 11.2437 139.276 11.547C139.137 11.8503 139.068 12.197 139.068 12.587V12.626ZM146.764 16.5C146.634 16.5 146.53 16.4697 146.452 16.409C146.382 16.3483 146.326 16.2703 146.283 16.175L143.878 10.143C143.86 10.0997 143.852 10.0563 143.852 10.013C143.852 9.935 143.878 9.87 143.93 9.818C143.982 9.766 144.047 9.74 144.125 9.74H144.749C144.844 9.74 144.918 9.766 144.97 9.818C145.022 9.87 145.052 9.91767 145.061 9.961L147.05 15.083L149.026 9.961C149.043 9.91767 149.073 9.87 149.117 9.818C149.169 9.766 149.242 9.74 149.338 9.74H149.975C150.044 9.74 150.105 9.766 150.157 9.818C150.217 9.87 150.248 9.935 150.248 10.013C150.248 10.0563 150.239 10.0997 150.222 10.143L147.804 16.175C147.769 16.2703 147.713 16.3483 147.635 16.409C147.565 16.4697 147.461 16.5 147.323 16.5H146.764ZM153.279 16.63C152.386 16.63 151.675 16.357 151.147 15.811C150.618 15.2563 150.328 14.5023 150.276 13.549C150.267 13.4363 150.263 13.2933 150.263 13.12C150.263 12.938 150.267 12.7907 150.276 12.678C150.31 12.0627 150.453 11.5253 150.705 11.066C150.956 10.598 151.298 10.2383 151.732 9.987C152.174 9.73567 152.689 9.61 153.279 9.61C153.937 9.61 154.488 9.74867 154.93 10.026C155.38 10.3033 155.723 10.6977 155.957 11.209C156.191 11.7203 156.308 12.3183 156.308 13.003V13.224C156.308 13.3193 156.277 13.393 156.217 13.445C156.165 13.497 156.095 13.523 156.009 13.523H151.511C151.511 13.5317 151.511 13.549 151.511 13.575C151.511 13.601 151.511 13.6227 151.511 13.64C151.528 13.9953 151.606 14.329 151.745 14.641C151.883 14.9443 152.083 15.1913 152.343 15.382C152.603 15.5727 152.915 15.668 153.279 15.668C153.591 15.668 153.851 15.6203 154.059 15.525C154.267 15.4297 154.436 15.3257 154.566 15.213C154.696 15.0917 154.782 15.0007 154.826 14.94C154.904 14.8273 154.964 14.7623 155.008 14.745C155.051 14.719 155.12 14.706 155.216 14.706H155.84C155.926 14.706 155.996 14.732 156.048 14.784C156.108 14.8273 156.134 14.8923 156.126 14.979C156.117 15.109 156.048 15.2693 155.918 15.46C155.788 15.642 155.601 15.824 155.359 16.006C155.116 16.188 154.821 16.3397 154.475 16.461C154.128 16.5737 153.729 16.63 153.279 16.63ZM151.511 12.626H155.073V12.587C155.073 12.197 154.999 11.8503 154.852 11.547C154.713 11.2437 154.509 11.0053 154.241 10.832C153.972 10.65 153.651 10.559 153.279 10.559C152.906 10.559 152.585 10.65 152.317 10.832C152.057 11.0053 151.857 11.2437 151.719 11.547C151.58 11.8503 151.511 12.197 151.511 12.587V12.626ZM157.394 16.5C157.308 16.5 157.234 16.474 157.173 16.422C157.121 16.3613 157.095 16.2877 157.095 16.201V7.569C157.095 7.48233 157.121 7.413 157.173 7.361C157.234 7.30033 157.308 7.27 157.394 7.27H158.005C158.101 7.27 158.174 7.30033 158.226 7.361C158.278 7.413 158.304 7.48233 158.304 7.569V16.201C158.304 16.2877 158.278 16.3613 158.226 16.422C158.174 16.474 158.101 16.5 158.005 16.5H157.394ZM162.232 16.63C161.574 16.63 161.023 16.5043 160.581 16.253C160.139 16.0017 159.801 15.655 159.567 15.213C159.333 14.7623 159.203 14.251 159.177 13.679C159.169 13.5317 159.164 13.3453 159.164 13.12C159.164 12.886 159.169 12.6997 159.177 12.561C159.203 11.9803 159.333 11.469 159.567 11.027C159.81 10.585 160.152 10.2383 160.594 9.987C161.036 9.73567 161.582 9.61 162.232 9.61C162.882 9.61 163.428 9.73567 163.87 9.987C164.312 10.2383 164.65 10.585 164.884 11.027C165.127 11.469 165.261 11.9803 165.287 12.561C165.296 12.6997 165.3 12.886 165.3 13.12C165.3 13.3453 165.296 13.5317 165.287 13.679C165.261 14.251 165.131 14.7623 164.897 15.213C164.663 15.655 164.325 16.0017 163.883 16.253C163.441 16.5043 162.891 16.63 162.232 16.63ZM162.232 15.629C162.77 15.629 163.199 15.46 163.519 15.122C163.84 14.7753 164.013 14.2727 164.039 13.614C164.048 13.484 164.052 13.3193 164.052 13.12C164.052 12.9207 164.048 12.756 164.039 12.626C164.013 11.9673 163.84 11.469 163.519 11.131C163.199 10.7843 162.77 10.611 162.232 10.611C161.695 10.611 161.262 10.7843 160.932 11.131C160.612 11.469 160.443 11.9673 160.425 12.626C160.417 12.756 160.412 12.9207 160.412 13.12C160.412 13.3193 160.417 13.484 160.425 13.614C160.443 14.2727 160.612 14.7753 160.932 15.122C161.262 15.46 161.695 15.629 162.232 15.629ZM166.46 18.97C166.374 18.97 166.3 18.9397 166.239 18.879C166.187 18.827 166.161 18.7577 166.161 18.671V10.039C166.161 9.95233 166.187 9.883 166.239 9.831C166.3 9.77033 166.374 9.74 166.46 9.74H167.058C167.145 9.74 167.214 9.77033 167.266 9.831C167.327 9.883 167.357 9.95233 167.357 10.039V10.611C167.565 10.325 167.843 10.0867 168.189 9.896C168.536 9.70533 168.969 9.61 169.489 9.61C169.975 9.61 170.386 9.69233 170.724 9.857C171.071 10.0217 171.353 10.247 171.569 10.533C171.795 10.819 171.964 11.144 172.076 11.508C172.189 11.872 172.25 12.262 172.258 12.678C172.267 12.8167 172.271 12.964 172.271 13.12C172.271 13.276 172.267 13.4233 172.258 13.562C172.25 13.9693 172.189 14.3593 172.076 14.732C171.964 15.096 171.795 15.421 171.569 15.707C171.353 15.9843 171.071 16.2097 170.724 16.383C170.386 16.5477 169.975 16.63 169.489 16.63C168.987 16.63 168.562 16.539 168.215 16.357C167.877 16.1663 167.6 15.9323 167.383 15.655V18.671C167.383 18.7577 167.357 18.827 167.305 18.879C167.253 18.9397 167.18 18.97 167.084 18.97H166.46ZM169.216 15.577C169.667 15.577 170.018 15.4817 170.269 15.291C170.529 15.0917 170.716 14.836 170.828 14.524C170.941 14.2033 171.006 13.861 171.023 13.497C171.032 13.2457 171.032 12.9943 171.023 12.743C171.006 12.379 170.941 12.041 170.828 11.729C170.716 11.4083 170.529 11.1527 170.269 10.962C170.018 10.7627 169.667 10.663 169.216 10.663C168.792 10.663 168.445 10.7627 168.176 10.962C167.916 11.1613 167.721 11.417 167.591 11.729C167.47 12.0323 167.401 12.3443 167.383 12.665C167.375 12.8037 167.37 12.9683 167.37 13.159C167.37 13.3497 167.375 13.5187 167.383 13.666C167.392 13.9693 167.461 14.2683 167.591 14.563C167.73 14.8577 167.934 15.1003 168.202 15.291C168.471 15.4817 168.809 15.577 169.216 15.577ZM175.803 16.63C174.911 16.63 174.2 16.357 173.671 15.811C173.143 15.2563 172.852 14.5023 172.8 13.549C172.792 13.4363 172.787 13.2933 172.787 13.12C172.787 12.938 172.792 12.7907 172.8 12.678C172.835 12.0627 172.978 11.5253 173.229 11.066C173.481 10.598 173.823 10.2383 174.256 9.987C174.698 9.73567 175.214 9.61 175.803 9.61C176.462 9.61 177.012 9.74867 177.454 10.026C177.905 10.3033 178.247 10.6977 178.481 11.209C178.715 11.7203 178.832 12.3183 178.832 13.003V13.224C178.832 13.3193 178.802 13.393 178.741 13.445C178.689 13.497 178.62 13.523 178.533 13.523H174.035C174.035 13.5317 174.035 13.549 174.035 13.575C174.035 13.601 174.035 13.6227 174.035 13.64C174.053 13.9953 174.131 14.329 174.269 14.641C174.408 14.9443 174.607 15.1913 174.867 15.382C175.127 15.5727 175.439 15.668 175.803 15.668C176.115 15.668 176.375 15.6203 176.583 15.525C176.791 15.4297 176.96 15.3257 177.09 15.213C177.22 15.0917 177.307 15.0007 177.35 14.94C177.428 14.8273 177.489 14.7623 177.532 14.745C177.576 14.719 177.645 14.706 177.74 14.706H178.364C178.451 14.706 178.52 14.732 178.572 14.784C178.633 14.8273 178.659 14.8923 178.65 14.979C178.642 15.109 178.572 15.2693 178.442 15.46C178.312 15.642 178.126 15.824 177.883 16.006C177.641 16.188 177.346 16.3397 176.999 16.461C176.653 16.5737 176.254 16.63 175.803 16.63ZM174.035 12.626H177.597V12.587C177.597 12.197 177.524 11.8503 177.376 11.547C177.238 11.2437 177.034 11.0053 176.765 10.832C176.497 10.65 176.176 10.559 175.803 10.559C175.431 10.559 175.11 10.65 174.841 10.832C174.581 11.0053 174.382 11.2437 174.243 11.547C174.105 11.8503 174.035 12.197 174.035 12.587V12.626ZM179.906 16.5C179.819 16.5 179.745 16.474 179.685 16.422C179.633 16.3613 179.607 16.2877 179.607 16.201V10.052C179.607 9.96533 179.633 9.89167 179.685 9.831C179.745 9.77033 179.819 9.74 179.906 9.74H180.504C180.59 9.74 180.664 9.77033 180.725 9.831C180.785 9.89167 180.816 9.96533 180.816 10.052V10.624C180.989 10.3293 181.227 10.1083 181.531 9.961C181.834 9.81367 182.198 9.74 182.623 9.74H183.143C183.229 9.74 183.299 9.77033 183.351 9.831C183.403 9.883 183.429 9.95233 183.429 10.039V10.572C183.429 10.6587 183.403 10.728 183.351 10.78C183.299 10.832 183.229 10.858 183.143 10.858H182.363C181.895 10.858 181.526 10.9967 181.258 11.274C180.989 11.5427 180.855 11.911 180.855 12.379V16.201C180.855 16.2877 180.824 16.3613 180.764 16.422C180.703 16.474 180.629 16.5 180.543 16.5H179.906ZM186.335 16.5C186.24 16.5 186.166 16.474 186.114 16.422C186.062 16.3613 186.036 16.2877 186.036 16.201V7.712C186.036 7.61667 186.062 7.543 186.114 7.491C186.166 7.43033 186.24 7.4 186.335 7.4H189.637C190.278 7.4 190.833 7.504 191.301 7.712C191.778 7.92 192.146 8.232 192.406 8.648C192.666 9.05533 192.796 9.56667 192.796 10.182C192.796 10.7973 192.666 11.3087 192.406 11.716C192.146 12.1233 191.778 12.431 191.301 12.639C190.833 12.847 190.278 12.951 189.637 12.951H187.336V16.201C187.336 16.2877 187.306 16.3613 187.245 16.422C187.193 16.474 187.119 16.5 187.024 16.5H186.335ZM187.323 11.859H189.572C190.213 11.859 190.694 11.716 191.015 11.43C191.336 11.144 191.496 10.728 191.496 10.182C191.496 9.64467 191.34 9.22867 191.028 8.934C190.716 8.63933 190.231 8.492 189.572 8.492H187.323V11.859ZM196.108 16.63C195.449 16.63 194.899 16.5043 194.457 16.253C194.015 16.0017 193.677 15.655 193.443 15.213C193.209 14.7623 193.079 14.251 193.053 13.679C193.044 13.5317 193.04 13.3453 193.04 13.12C193.04 12.886 193.044 12.6997 193.053 12.561C193.079 11.9803 193.209 11.469 193.443 11.027C193.686 10.585 194.028 10.2383 194.47 9.987C194.912 9.73567 195.458 9.61 196.108 9.61C196.758 9.61 197.304 9.73567 197.746 9.987C198.188 10.2383 198.526 10.585 198.76 11.027C199.003 11.469 199.137 11.9803 199.163 12.561C199.172 12.6997 199.176 12.886 199.176 13.12C199.176 13.3453 199.172 13.5317 199.163 13.679C199.137 14.251 199.007 14.7623 198.773 15.213C198.539 15.655 198.201 16.0017 197.759 16.253C197.317 16.5043 196.767 16.63 196.108 16.63ZM196.108 15.629C196.645 15.629 197.074 15.46 197.395 15.122C197.716 14.7753 197.889 14.2727 197.915 13.614C197.924 13.484 197.928 13.3193 197.928 13.12C197.928 12.9207 197.924 12.756 197.915 12.626C197.889 11.9673 197.716 11.469 197.395 11.131C197.074 10.7843 196.645 10.611 196.108 10.611C195.571 10.611 195.137 10.7843 194.808 11.131C194.487 11.469 194.318 11.9673 194.301 12.626C194.292 12.756 194.288 12.9207 194.288 13.12C194.288 13.3193 194.292 13.484 194.301 13.614C194.318 14.2727 194.487 14.7753 194.808 15.122C195.137 15.46 195.571 15.629 196.108 15.629ZM200.323 16.5C200.236 16.5 200.163 16.474 200.102 16.422C200.05 16.3613 200.024 16.2877 200.024 16.201V10.052C200.024 9.96533 200.05 9.89167 200.102 9.831C200.163 9.77033 200.236 9.74 200.323 9.74H200.921C201.008 9.74 201.081 9.77033 201.142 9.831C201.203 9.89167 201.233 9.96533 201.233 10.052V10.624C201.406 10.3293 201.645 10.1083 201.948 9.961C202.251 9.81367 202.615 9.74 203.04 9.74H203.56C203.647 9.74 203.716 9.77033 203.768 9.831C203.82 9.883 203.846 9.95233 203.846 10.039V10.572C203.846 10.6587 203.82 10.728 203.768 10.78C203.716 10.832 203.647 10.858 203.56 10.858H202.78C202.312 10.858 201.944 10.9967 201.675 11.274C201.406 11.5427 201.272 11.911 201.272 12.379V16.201C201.272 16.2877 201.242 16.3613 201.181 16.422C201.12 16.474 201.047 16.5 200.96 16.5H200.323ZM206.821 16.5C206.336 16.5 205.942 16.409 205.638 16.227C205.335 16.0363 205.114 15.772 204.975 15.434C204.837 15.0873 204.767 14.68 204.767 14.212V10.78H203.753C203.667 10.78 203.593 10.754 203.532 10.702C203.48 10.6413 203.454 10.5677 203.454 10.481V10.039C203.454 9.95233 203.48 9.883 203.532 9.831C203.593 9.77033 203.667 9.74 203.753 9.74H204.767V7.569C204.767 7.48233 204.793 7.413 204.845 7.361C204.906 7.30033 204.98 7.27 205.066 7.27H205.677C205.764 7.27 205.833 7.30033 205.885 7.361C205.946 7.413 205.976 7.48233 205.976 7.569V9.74H207.588C207.675 9.74 207.744 9.77033 207.796 9.831C207.857 9.883 207.887 9.95233 207.887 10.039V10.481C207.887 10.5677 207.857 10.6413 207.796 10.702C207.744 10.754 207.675 10.78 207.588 10.78H205.976V14.121C205.976 14.5283 206.046 14.849 206.184 15.083C206.323 15.317 206.57 15.434 206.925 15.434H207.718C207.805 15.434 207.874 15.4643 207.926 15.525C207.987 15.577 208.017 15.6463 208.017 15.733V16.201C208.017 16.2877 207.987 16.3613 207.926 16.422C207.874 16.474 207.805 16.5 207.718 16.5H206.821ZM210.365 16.63C209.932 16.63 209.538 16.5433 209.182 16.37C208.827 16.1967 208.541 15.9627 208.324 15.668C208.108 15.3733 207.999 15.0397 207.999 14.667C207.999 14.069 208.242 13.5923 208.727 13.237C209.213 12.8817 209.845 12.6477 210.625 12.535L212.562 12.262V11.885C212.562 11.469 212.441 11.144 212.198 10.91C211.964 10.676 211.579 10.559 211.041 10.559C210.651 10.559 210.335 10.637 210.092 10.793C209.858 10.949 209.694 11.1483 209.598 11.391C209.546 11.521 209.455 11.586 209.325 11.586H208.74C208.645 11.586 208.571 11.56 208.519 11.508C208.476 11.4473 208.454 11.378 208.454 11.3C208.454 11.17 208.502 11.0097 208.597 10.819C208.701 10.6283 208.857 10.442 209.065 10.26C209.273 10.078 209.538 9.92633 209.858 9.805C210.188 9.675 210.586 9.61 211.054 9.61C211.574 9.61 212.012 9.67933 212.367 9.818C212.723 9.948 213 10.1257 213.199 10.351C213.407 10.5763 213.555 10.832 213.641 11.118C213.737 11.404 213.784 11.6943 213.784 11.989V16.201C213.784 16.2877 213.754 16.3613 213.693 16.422C213.641 16.474 213.572 16.5 213.485 16.5H212.887C212.792 16.5 212.718 16.474 212.666 16.422C212.614 16.3613 212.588 16.2877 212.588 16.201V15.642C212.476 15.798 212.324 15.954 212.133 16.11C211.943 16.2573 211.704 16.383 211.418 16.487C211.132 16.5823 210.781 16.63 210.365 16.63ZM210.638 15.655C210.994 15.655 211.319 15.5813 211.613 15.434C211.908 15.278 212.138 15.0397 212.302 14.719C212.476 14.3983 212.562 13.9953 212.562 13.51V13.146L211.054 13.367C210.439 13.4537 209.975 13.601 209.663 13.809C209.351 14.0083 209.195 14.264 209.195 14.576C209.195 14.8187 209.265 15.0223 209.403 15.187C209.551 15.343 209.733 15.46 209.949 15.538C210.175 15.616 210.404 15.655 210.638 15.655ZM215.185 16.5C215.099 16.5 215.025 16.474 214.964 16.422C214.912 16.3613 214.886 16.2877 214.886 16.201V7.569C214.886 7.48233 214.912 7.413 214.964 7.361C215.025 7.30033 215.099 7.27 215.185 7.27H215.796C215.892 7.27 215.965 7.30033 216.017 7.361C216.069 7.413 216.095 7.48233 216.095 7.569V16.201C216.095 16.2877 216.069 16.3613 216.017 16.422C215.965 16.474 215.892 16.5 215.796 16.5H215.185Z" fill="#8F8F8F"/>
</svg>
