<svg width="224" height="24" viewBox="0 0 224 24" fill="none" xmlns="http://www.w3.org/2000/svg">
<g clip-path="url(#clip0_156_15)">
<path d="M9.26373 0.0384937C4.3734 0.707751 0.702688 4.53208 0.0869562 9.59931C-0.161705 11.6326 0.122479 13.5639 0.945428 15.3868C2.59725 19.0581 6.10218 20.9321 9.3999 19.9059C11.9694 19.1091 13.9113 16.4257 13.9113 13.6658C13.9113 13.0603 13.7811 12.7799 13.491 12.7544C13.2956 12.7353 13.1357 12.85 11.5964 14.0738C9.79065 15.5143 9.55975 15.6545 9.05059 15.5907C8.12107 15.4696 7.41061 14.4307 6.94881 12.5185C6.81856 11.9895 6.78896 11.6899 6.76528 10.7657C6.73567 9.52919 6.8008 8.87906 7.07314 7.86561C7.9849 4.46834 10.7853 1.89967 14.4086 1.14755C14.7283 1.07744 15.0007 1.0137 15.0125 0.994575C15.048 0.956332 14.1718 0.612143 13.5087 0.408179C12.5259 0.108606 11.6911 -0.00612343 10.5189 0.000250451C9.92682 0.00662433 9.36437 0.025746 9.26373 0.0384937Z" fill="#4EA174"/>
<path d="M15.717 3.92018C13.9586 4.17513 12.8337 4.7679 11.7325 6.01718C10.6905 7.19635 10.1103 8.66234 10.0984 10.1602C10.0925 10.9251 10.1458 11.1099 10.3945 11.2119C10.6076 11.3011 10.726 11.231 11.8213 10.3705C12.366 9.93711 13.112 9.35072 13.4672 9.06389C14.2369 8.45838 14.4441 8.33727 14.7993 8.27353C15.9893 8.07594 16.9899 9.5738 17.2918 12.0086C17.3747 12.7034 17.3274 14.2841 17.1971 14.9725C16.8537 16.8209 16.09 18.4271 14.9177 19.7784C13.6093 21.2762 11.543 22.4745 9.47679 22.9271L8.92619 23.0482L9.21037 23.1757C10.5662 23.8067 12.437 24.1062 14.0474 23.966C15.6874 23.8258 16.8893 23.4625 18.2865 22.704C19.3403 22.1367 20.0745 21.5822 20.8856 20.7408C22.123 19.4661 22.8867 18.204 23.461 16.5022C23.8991 15.1956 24.0057 14.4881 23.9998 12.901C23.9998 11.7664 23.9761 11.4668 23.8695 10.9314C23.1354 7.38119 20.8797 4.7934 17.878 4.06678C17.3984 3.95205 16.1018 3.86281 15.717 3.92018Z" fill="#4EA174"/>
<path d="M33.836 18C33.716 18 33.614 17.958 33.53 17.874C33.446 17.79 33.404 17.688 33.404 17.568V5.85C33.404 5.718 33.446 5.61 33.53 5.526C33.614 5.442 33.716 5.4 33.836 5.4H38.498C39.95 5.4 41.096 5.736 41.936 6.408C42.776 7.08 43.196 8.058 43.196 9.342C43.196 10.23 42.974 10.968 42.53 11.556C42.098 12.144 41.516 12.57 40.784 12.834L43.412 17.424C43.448 17.496 43.466 17.562 43.466 17.622C43.466 17.73 43.424 17.82 43.34 17.892C43.268 17.964 43.184 18 43.088 18H41.45C41.246 18 41.09 17.946 40.982 17.838C40.874 17.73 40.79 17.622 40.73 17.514L38.408 13.248H35.906V17.568C35.906 17.688 35.864 17.79 35.78 17.874C35.708 17.958 35.606 18 35.474 18H33.836ZM35.906 11.214H38.444C39.176 11.214 39.722 11.052 40.082 10.728C40.442 10.392 40.622 9.924 40.622 9.324C40.622 8.724 40.442 8.256 40.082 7.92C39.734 7.572 39.188 7.398 38.444 7.398H35.906V11.214ZM48.1459 18.18C46.8139 18.18 45.7579 17.796 44.9779 17.028C44.1979 16.26 43.7779 15.168 43.7179 13.752C43.7059 13.632 43.6999 13.482 43.6999 13.302C43.6999 13.11 43.7059 12.96 43.7179 12.852C43.7659 11.952 43.9699 11.172 44.3299 10.512C44.7019 9.852 45.2119 9.348 45.8599 9C46.5079 8.64 47.2699 8.46 48.1459 8.46C49.1179 8.46 49.9339 8.664 50.5939 9.072C51.2539 9.468 51.7519 10.026 52.0879 10.746C52.4239 11.454 52.5919 12.276 52.5919 13.212V13.59C52.5919 13.71 52.5499 13.812 52.4659 13.896C52.3819 13.98 52.2739 14.022 52.1419 14.022H46.1659C46.1659 14.022 46.1659 14.04 46.1659 14.076C46.1659 14.112 46.1659 14.142 46.1659 14.166C46.1779 14.586 46.2559 14.976 46.3999 15.336C46.5559 15.684 46.7779 15.966 47.0659 16.182C47.3659 16.398 47.7199 16.506 48.1279 16.506C48.4639 16.506 48.7459 16.458 48.9739 16.362C49.2019 16.254 49.3879 16.134 49.5319 16.002C49.6759 15.87 49.7779 15.762 49.8379 15.678C49.9459 15.534 50.0299 15.45 50.0899 15.426C50.1619 15.39 50.2639 15.372 50.3959 15.372H51.9439C52.0639 15.372 52.1599 15.408 52.2319 15.48C52.3159 15.552 52.3519 15.642 52.3399 15.75C52.3279 15.942 52.2259 16.176 52.0339 16.452C51.8539 16.728 51.5899 16.998 51.2419 17.262C50.8939 17.526 50.4559 17.748 49.9279 17.928C49.4119 18.096 48.8179 18.18 48.1459 18.18ZM46.1659 12.51H50.1439V12.456C50.1439 11.988 50.0659 11.58 49.9099 11.232C49.7539 10.884 49.5259 10.608 49.2259 10.404C48.9259 10.2 48.5659 10.098 48.1459 10.098C47.7259 10.098 47.3659 10.2 47.0659 10.404C46.7659 10.608 46.5379 10.884 46.3819 11.232C46.2379 11.58 46.1659 11.988 46.1659 12.456V12.51ZM57.6174 18C56.8974 18 56.2914 17.874 55.7994 17.622C55.3074 17.37 54.9414 16.998 54.7014 16.506C54.4614 16.002 54.3414 15.378 54.3414 14.634V10.548H52.9194C52.7994 10.548 52.6974 10.506 52.6134 10.422C52.5294 10.338 52.4874 10.236 52.4874 10.116V9.072C52.4874 8.952 52.5294 8.85 52.6134 8.766C52.6974 8.682 52.7994 8.64 52.9194 8.64H54.3414V5.652C54.3414 5.532 54.3774 5.43 54.4494 5.346C54.5334 5.262 54.6414 5.22 54.7734 5.22H56.2314C56.3514 5.22 56.4534 5.262 56.5374 5.346C56.6214 5.43 56.6634 5.532 56.6634 5.652V8.64H58.9134C59.0334 8.64 59.1354 8.682 59.2194 8.766C59.3034 8.85 59.3454 8.952 59.3454 9.072V10.116C59.3454 10.236 59.3034 10.338 59.2194 10.422C59.1354 10.506 59.0334 10.548 58.9134 10.548H56.6634V14.454C56.6634 14.946 56.7474 15.33 56.9154 15.606C57.0954 15.882 57.4014 16.02 57.8334 16.02H59.0754C59.1954 16.02 59.2974 16.062 59.3814 16.146C59.4654 16.23 59.5074 16.332 59.5074 16.452V17.568C59.5074 17.688 59.4654 17.79 59.3814 17.874C59.2974 17.958 59.1954 18 59.0754 18H57.6174ZM63.4982 18.18C62.7662 18.18 62.1302 18.018 61.5902 17.694C61.0622 17.358 60.6542 16.89 60.3662 16.29C60.0782 15.678 59.9342 14.958 59.9342 14.13V9.072C59.9342 8.952 59.9762 8.85 60.0602 8.766C60.1442 8.682 60.2462 8.64 60.3662 8.64H61.9502C62.0822 8.64 62.1842 8.682 62.2562 8.766C62.3402 8.85 62.3822 8.952 62.3822 9.072V14.022C62.3822 15.51 63.0362 16.254 64.3442 16.254C64.9682 16.254 65.4602 16.056 65.8202 15.66C66.1922 15.264 66.3782 14.718 66.3782 14.022V9.072C66.3782 8.952 66.4202 8.85 66.5042 8.766C66.5882 8.682 66.6902 8.64 66.8102 8.64H68.3942C68.5142 8.64 68.6162 8.682 68.7002 8.766C68.7842 8.85 68.8262 8.952 68.8262 9.072V17.568C68.8262 17.688 68.7842 17.79 68.7002 17.874C68.6162 17.958 68.5142 18 68.3942 18H66.9362C66.8042 18 66.6962 17.958 66.6122 17.874C66.5402 17.79 66.5042 17.688 66.5042 17.568V16.83C66.1802 17.25 65.7782 17.58 65.2982 17.82C64.8182 18.06 64.2182 18.18 63.4982 18.18ZM70.5559 18C70.4359 18 70.3339 17.958 70.2499 17.874C70.1659 17.79 70.1239 17.688 70.1239 17.568V9.09C70.1239 8.958 70.1659 8.85 70.2499 8.766C70.3339 8.682 70.4359 8.64 70.5559 8.64H72.0139C72.1339 8.64 72.2359 8.682 72.3199 8.766C72.4159 8.85 72.4639 8.958 72.4639 9.09V9.828C72.7399 9.444 73.0939 9.15 73.5259 8.946C73.9699 8.742 74.4799 8.64 75.0559 8.64H75.7939C75.9259 8.64 76.0279 8.682 76.0999 8.766C76.1839 8.85 76.2259 8.952 76.2259 9.072V10.368C76.2259 10.488 76.1839 10.59 76.0999 10.674C76.0279 10.758 75.9259 10.8 75.7939 10.8H74.3899C73.8139 10.8 73.3639 10.962 73.0399 11.286C72.7279 11.61 72.5719 12.054 72.5719 12.618V17.568C72.5719 17.688 72.5299 17.79 72.4459 17.874C72.3619 17.958 72.2539 18 72.1219 18H70.5559ZM76.9817 18C76.8617 18 76.7597 17.958 76.6757 17.874C76.5917 17.79 76.5497 17.688 76.5497 17.568V9.072C76.5497 8.952 76.5917 8.85 76.6757 8.766C76.7597 8.682 76.8617 8.64 76.9817 8.64H78.4577C78.5777 8.64 78.6797 8.682 78.7637 8.766C78.8477 8.85 78.8897 8.952 78.8897 9.072V9.81C79.2017 9.426 79.5977 9.108 80.0777 8.856C80.5697 8.592 81.1757 8.46 81.8957 8.46C82.6277 8.46 83.2637 8.628 83.8037 8.964C84.3437 9.288 84.7577 9.75 85.0457 10.35C85.3457 10.95 85.4957 11.67 85.4957 12.51V17.568C85.4957 17.688 85.4537 17.79 85.3697 17.874C85.2857 17.958 85.1837 18 85.0637 18H83.4797C83.3597 18 83.2577 17.958 83.1737 17.874C83.0897 17.79 83.0477 17.688 83.0477 17.568V12.618C83.0477 11.922 82.8737 11.376 82.5257 10.98C82.1897 10.584 81.6977 10.386 81.0497 10.386C80.4257 10.386 79.9277 10.584 79.5557 10.98C79.1837 11.376 78.9977 11.922 78.9977 12.618V17.568C78.9977 17.688 78.9557 17.79 78.8717 17.874C78.7877 17.958 78.6857 18 78.5657 18H76.9817ZM87.3501 18C87.2301 18 87.1281 17.958 87.0441 17.874C86.9601 17.79 86.9181 17.688 86.9181 17.568V5.85C86.9181 5.718 86.9601 5.61 87.0441 5.526C87.1281 5.442 87.2301 5.4 87.3501 5.4H92.1741C93.1101 5.4 93.9261 5.55 94.6221 5.85C95.3181 6.138 95.8581 6.582 96.2421 7.182C96.6261 7.77 96.8181 8.508 96.8181 9.396C96.8181 10.296 96.6261 11.04 96.2421 11.628C95.8581 12.204 95.3181 12.636 94.6221 12.924C93.9261 13.212 93.1101 13.356 92.1741 13.356H89.4921V17.568C89.4921 17.688 89.4501 17.79 89.3661 17.874C89.2941 17.958 89.1921 18 89.0601 18H87.3501ZM89.4561 11.358H92.0841C92.7801 11.358 93.3141 11.196 93.6861 10.872C94.0581 10.536 94.2441 10.044 94.2441 9.396C94.2441 8.796 94.0701 8.316 93.7221 7.956C93.3741 7.584 92.8281 7.398 92.0841 7.398H89.4561V11.358ZM97.9194 18C97.7994 18 97.6974 17.958 97.6134 17.874C97.5294 17.79 97.4874 17.688 97.4874 17.568V9.072C97.4874 8.952 97.5294 8.85 97.6134 8.766C97.6974 8.682 97.7994 8.64 97.9194 8.64H99.4134C99.5454 8.64 99.6474 8.682 99.7194 8.766C99.8034 8.85 99.8454 8.952 99.8454 9.072V17.568C99.8454 17.688 99.8034 17.79 99.7194 17.874C99.6474 17.958 99.5454 18 99.4134 18H97.9194ZM97.8474 7.092C97.7154 7.092 97.6074 7.056 97.5234 6.984C97.4514 6.9 97.4154 6.792 97.4154 6.66V5.364C97.4154 5.244 97.4514 5.142 97.5234 5.058C97.6074 4.974 97.7154 4.932 97.8474 4.932H99.4854C99.6174 4.932 99.7254 4.974 99.8094 5.058C99.8934 5.142 99.9354 5.244 99.9354 5.364V6.66C99.9354 6.792 99.8934 6.9 99.8094 6.984C99.7254 7.056 99.6174 7.092 99.4854 7.092H97.8474ZM101.603 18C101.483 18 101.381 17.958 101.297 17.874C101.213 17.79 101.171 17.688 101.171 17.568V5.652C101.171 5.532 101.213 5.43 101.297 5.346C101.381 5.262 101.483 5.22 101.603 5.22H103.097C103.217 5.22 103.319 5.262 103.403 5.346C103.487 5.43 103.529 5.532 103.529 5.652V17.568C103.529 17.688 103.487 17.79 103.403 17.874C103.319 17.958 103.217 18 103.097 18H101.603ZM108.977 18.18C108.017 18.18 107.207 18.012 106.547 17.676C105.899 17.34 105.401 16.866 105.053 16.254C104.717 15.642 104.525 14.928 104.477 14.112C104.465 13.896 104.459 13.632 104.459 13.32C104.459 13.008 104.465 12.744 104.477 12.528C104.525 11.7 104.723 10.986 105.071 10.386C105.431 9.774 105.935 9.3 106.583 8.964C107.243 8.628 108.041 8.46 108.977 8.46C109.913 8.46 110.705 8.628 111.353 8.964C112.013 9.3 112.517 9.774 112.865 10.386C113.225 10.986 113.429 11.7 113.477 12.528C113.489 12.744 113.495 13.008 113.495 13.32C113.495 13.632 113.489 13.896 113.477 14.112C113.429 14.928 113.231 15.642 112.883 16.254C112.547 16.866 112.049 17.34 111.389 17.676C110.741 18.012 109.937 18.18 108.977 18.18ZM108.977 16.398C109.613 16.398 110.105 16.2 110.453 15.804C110.801 15.396 110.993 14.802 111.029 14.022C111.041 13.842 111.047 13.608 111.047 13.32C111.047 13.032 111.041 12.798 111.029 12.618C110.993 11.85 110.801 11.262 110.453 10.854C110.105 10.446 109.613 10.242 108.977 10.242C108.341 10.242 107.849 10.446 107.501 10.854C107.153 11.262 106.961 11.85 106.925 12.618C106.913 12.798 106.907 13.032 106.907 13.32C106.907 13.608 106.913 13.842 106.925 14.022C106.961 14.802 107.153 15.396 107.501 15.804C107.849 16.2 108.341 16.398 108.977 16.398ZM118.569 18C117.849 18 117.243 17.874 116.751 17.622C116.259 17.37 115.893 16.998 115.653 16.506C115.413 16.002 115.293 15.378 115.293 14.634V10.548H113.871C113.751 10.548 113.649 10.506 113.565 10.422C113.481 10.338 113.439 10.236 113.439 10.116V9.072C113.439 8.952 113.481 8.85 113.565 8.766C113.649 8.682 113.751 8.64 113.871 8.64H115.293V5.652C115.293 5.532 115.329 5.43 115.401 5.346C115.485 5.262 115.593 5.22 115.725 5.22H117.183C117.303 5.22 117.405 5.262 117.489 5.346C117.573 5.43 117.615 5.532 117.615 5.652V8.64H119.865C119.985 8.64 120.087 8.682 120.171 8.766C120.255 8.85 120.297 8.952 120.297 9.072V10.116C120.297 10.236 120.255 10.338 120.171 10.422C120.087 10.506 119.985 10.548 119.865 10.548H117.615V14.454C117.615 14.946 117.699 15.33 117.867 15.606C118.047 15.882 118.353 16.02 118.785 16.02H120.027C120.147 16.02 120.249 16.062 120.333 16.146C120.417 16.23 120.459 16.332 120.459 16.452V17.568C120.459 17.688 120.417 17.79 120.333 17.874C120.249 17.958 120.147 18 120.027 18H118.569Z" fill="white"/>
<path d="M130.54 17C130.437 17 130.358 16.972 130.302 16.916C130.246 16.8507 130.218 16.7713 130.218 16.678V7.536C130.218 7.43333 130.246 7.354 130.302 7.298C130.358 7.23267 130.437 7.2 130.54 7.2H133.718C134.679 7.2 135.454 7.34467 136.042 7.634C136.63 7.92333 137.059 8.35267 137.33 8.922C137.601 9.482 137.741 10.1727 137.75 10.994C137.759 11.414 137.764 11.7827 137.764 12.1C137.764 12.4173 137.759 12.7813 137.75 13.192C137.731 14.0507 137.587 14.7647 137.316 15.334C137.055 15.894 136.635 16.314 136.056 16.594C135.487 16.8647 134.731 17 133.788 17H130.54ZM131.59 15.81H133.718C134.362 15.81 134.875 15.7213 135.258 15.544C135.641 15.3667 135.916 15.082 136.084 14.69C136.261 14.298 136.355 13.78 136.364 13.136C136.383 12.856 136.392 12.6133 136.392 12.408C136.392 12.1933 136.392 11.9833 136.392 11.778C136.392 11.5633 136.383 11.3207 136.364 11.05C136.345 10.1447 136.131 9.47733 135.72 9.048C135.309 8.60933 134.619 8.39 133.648 8.39H131.59V15.81ZM141.746 17.14C140.785 17.14 140.02 16.846 139.45 16.258C138.881 15.6607 138.568 14.8487 138.512 13.822C138.503 13.7007 138.498 13.5467 138.498 13.36C138.498 13.164 138.503 13.0053 138.512 12.884C138.55 12.2213 138.704 11.6427 138.974 11.148C139.245 10.644 139.614 10.2567 140.08 9.986C140.556 9.71533 141.112 9.58 141.746 9.58C142.456 9.58 143.048 9.72933 143.524 10.028C144.01 10.3267 144.378 10.7513 144.63 11.302C144.882 11.8527 145.008 12.4967 145.008 13.234V13.472C145.008 13.5747 144.976 13.654 144.91 13.71C144.854 13.766 144.78 13.794 144.686 13.794H139.842C139.842 13.8033 139.842 13.822 139.842 13.85C139.842 13.878 139.842 13.9013 139.842 13.92C139.861 14.3027 139.945 14.662 140.094 14.998C140.244 15.3247 140.458 15.5907 140.738 15.796C141.018 16.0013 141.354 16.104 141.746 16.104C142.082 16.104 142.362 16.0527 142.586 15.95C142.81 15.8473 142.992 15.7353 143.132 15.614C143.272 15.4833 143.366 15.3853 143.412 15.32C143.496 15.1987 143.562 15.1287 143.608 15.11C143.655 15.082 143.73 15.068 143.832 15.068H144.504C144.598 15.068 144.672 15.096 144.728 15.152C144.794 15.1987 144.822 15.2687 144.812 15.362C144.803 15.502 144.728 15.6747 144.588 15.88C144.448 16.076 144.248 16.272 143.986 16.468C143.725 16.664 143.408 16.8273 143.034 16.958C142.661 17.0793 142.232 17.14 141.746 17.14ZM139.842 12.828H143.678V12.786C143.678 12.366 143.599 11.9927 143.44 11.666C143.291 11.3393 143.072 11.0827 142.782 10.896C142.493 10.7 142.148 10.602 141.746 10.602C141.345 10.602 141 10.7 140.71 10.896C140.43 11.0827 140.216 11.3393 140.066 11.666C139.917 11.9927 139.842 12.366 139.842 12.786V12.828ZM148.13 17C147.99 17 147.878 16.9673 147.794 16.902C147.72 16.8367 147.659 16.7527 147.612 16.65L145.022 10.154C145.004 10.1073 144.994 10.0607 144.994 10.014C144.994 9.93 145.022 9.86 145.078 9.804C145.134 9.748 145.204 9.72 145.288 9.72H145.96C146.063 9.72 146.142 9.748 146.198 9.804C146.254 9.86 146.287 9.91133 146.296 9.958L148.438 15.474L150.566 9.958C150.585 9.91133 150.618 9.86 150.664 9.804C150.72 9.748 150.8 9.72 150.902 9.72H151.588C151.663 9.72 151.728 9.748 151.784 9.804C151.85 9.86 151.882 9.93 151.882 10.014C151.882 10.0607 151.873 10.1073 151.854 10.154L149.25 16.65C149.213 16.7527 149.152 16.8367 149.068 16.902C148.994 16.9673 148.882 17 148.732 17H148.13ZM155.146 17.14C154.185 17.14 153.42 16.846 152.85 16.258C152.281 15.6607 151.968 14.8487 151.912 13.822C151.903 13.7007 151.898 13.5467 151.898 13.36C151.898 13.164 151.903 13.0053 151.912 12.884C151.95 12.2213 152.104 11.6427 152.374 11.148C152.645 10.644 153.014 10.2567 153.48 9.986C153.956 9.71533 154.512 9.58 155.146 9.58C155.856 9.58 156.448 9.72933 156.924 10.028C157.41 10.3267 157.778 10.7513 158.03 11.302C158.282 11.8527 158.408 12.4967 158.408 13.234V13.472C158.408 13.5747 158.376 13.654 158.31 13.71C158.254 13.766 158.18 13.794 158.086 13.794H153.242C153.242 13.8033 153.242 13.822 153.242 13.85C153.242 13.878 153.242 13.9013 153.242 13.92C153.261 14.3027 153.345 14.662 153.494 14.998C153.644 15.3247 153.858 15.5907 154.138 15.796C154.418 16.0013 154.754 16.104 155.146 16.104C155.482 16.104 155.762 16.0527 155.986 15.95C156.21 15.8473 156.392 15.7353 156.532 15.614C156.672 15.4833 156.766 15.3853 156.812 15.32C156.896 15.1987 156.962 15.1287 157.008 15.11C157.055 15.082 157.13 15.068 157.232 15.068H157.904C157.998 15.068 158.072 15.096 158.128 15.152C158.194 15.1987 158.222 15.2687 158.212 15.362C158.203 15.502 158.128 15.6747 157.988 15.88C157.848 16.076 157.648 16.272 157.386 16.468C157.125 16.664 156.808 16.8273 156.434 16.958C156.061 17.0793 155.632 17.14 155.146 17.14ZM153.242 12.828H157.078V12.786C157.078 12.366 156.999 11.9927 156.84 11.666C156.691 11.3393 156.472 11.0827 156.182 10.896C155.893 10.7 155.548 10.602 155.146 10.602C154.745 10.602 154.4 10.7 154.11 10.896C153.83 11.0827 153.616 11.3393 153.466 11.666C153.317 11.9927 153.242 12.366 153.242 12.786V12.828ZM159.578 17C159.485 17 159.406 16.972 159.34 16.916C159.284 16.8507 159.256 16.7713 159.256 16.678V7.382C159.256 7.28867 159.284 7.214 159.34 7.158C159.406 7.09267 159.485 7.06 159.578 7.06H160.236C160.339 7.06 160.418 7.09267 160.474 7.158C160.53 7.214 160.558 7.28867 160.558 7.382V16.678C160.558 16.7713 160.53 16.8507 160.474 16.916C160.418 16.972 160.339 17 160.236 17H159.578ZM164.789 17.14C164.079 17.14 163.487 17.0047 163.011 16.734C162.535 16.4633 162.171 16.09 161.919 15.614C161.667 15.1287 161.527 14.578 161.499 13.962C161.489 13.8033 161.485 13.6027 161.485 13.36C161.485 13.108 161.489 12.9073 161.499 12.758C161.527 12.1327 161.667 11.582 161.919 11.106C162.18 10.63 162.549 10.2567 163.025 9.986C163.501 9.71533 164.089 9.58 164.789 9.58C165.489 9.58 166.077 9.71533 166.553 9.986C167.029 10.2567 167.393 10.63 167.645 11.106C167.906 11.582 168.051 12.1327 168.079 12.758C168.088 12.9073 168.093 13.108 168.093 13.36C168.093 13.6027 168.088 13.8033 168.079 13.962C168.051 14.578 167.911 15.1287 167.659 15.614C167.407 16.09 167.043 16.4633 166.567 16.734C166.091 17.0047 165.498 17.14 164.789 17.14ZM164.789 16.062C165.367 16.062 165.829 15.88 166.175 15.516C166.52 15.1427 166.707 14.6013 166.735 13.892C166.744 13.752 166.749 13.5747 166.749 13.36C166.749 13.1453 166.744 12.968 166.735 12.828C166.707 12.1187 166.52 11.582 166.175 11.218C165.829 10.8447 165.367 10.658 164.789 10.658C164.21 10.658 163.743 10.8447 163.389 11.218C163.043 11.582 162.861 12.1187 162.843 12.828C162.833 12.968 162.829 13.1453 162.829 13.36C162.829 13.5747 162.833 13.752 162.843 13.892C162.861 14.6013 163.043 15.1427 163.389 15.516C163.743 15.88 164.21 16.062 164.789 16.062ZM169.342 19.66C169.248 19.66 169.169 19.6273 169.104 19.562C169.048 19.506 169.02 19.4313 169.02 19.338V10.042C169.02 9.94867 169.048 9.874 169.104 9.818C169.169 9.75267 169.248 9.72 169.342 9.72H169.986C170.079 9.72 170.154 9.75267 170.21 9.818C170.275 9.874 170.308 9.94867 170.308 10.042V10.658C170.532 10.35 170.83 10.0933 171.204 9.888C171.577 9.68267 172.044 9.58 172.604 9.58C173.126 9.58 173.57 9.66867 173.934 9.846C174.307 10.0233 174.61 10.266 174.844 10.574C175.086 10.882 175.268 11.232 175.39 11.624C175.511 12.016 175.576 12.436 175.586 12.884C175.595 13.0333 175.6 13.192 175.6 13.36C175.6 13.528 175.595 13.6867 175.586 13.836C175.576 14.2747 175.511 14.6947 175.39 15.096C175.268 15.488 175.086 15.838 174.844 16.146C174.61 16.4447 174.307 16.6873 173.934 16.874C173.57 17.0513 173.126 17.14 172.604 17.14C172.062 17.14 171.605 17.042 171.232 16.846C170.868 16.6407 170.569 16.3887 170.336 16.09V19.338C170.336 19.4313 170.308 19.506 170.252 19.562C170.196 19.6273 170.116 19.66 170.014 19.66H169.342ZM172.31 16.006C172.795 16.006 173.173 15.9033 173.444 15.698C173.724 15.4833 173.924 15.208 174.046 14.872C174.167 14.5267 174.237 14.158 174.256 13.766C174.265 13.4953 174.265 13.2247 174.256 12.954C174.237 12.562 174.167 12.198 174.046 11.862C173.924 11.5167 173.724 11.2413 173.444 11.036C173.173 10.8213 172.795 10.714 172.31 10.714C171.852 10.714 171.479 10.8213 171.19 11.036C170.91 11.2507 170.7 11.526 170.56 11.862C170.429 12.1887 170.354 12.5247 170.336 12.87C170.326 13.0193 170.322 13.1967 170.322 13.402C170.322 13.6073 170.326 13.7893 170.336 13.948C170.345 14.2747 170.42 14.5967 170.56 14.914C170.709 15.2313 170.928 15.4927 171.218 15.698C171.507 15.9033 171.871 16.006 172.31 16.006ZM179.404 17.14C178.442 17.14 177.677 16.846 177.108 16.258C176.538 15.6607 176.226 14.8487 176.17 13.822C176.16 13.7007 176.156 13.5467 176.156 13.36C176.156 13.164 176.16 13.0053 176.17 12.884C176.207 12.2213 176.361 11.6427 176.632 11.148C176.902 10.644 177.271 10.2567 177.738 9.986C178.214 9.71533 178.769 9.58 179.404 9.58C180.113 9.58 180.706 9.72933 181.182 10.028C181.667 10.3267 182.036 10.7513 182.288 11.302C182.54 11.8527 182.666 12.4967 182.666 13.234V13.472C182.666 13.5747 182.633 13.654 182.568 13.71C182.512 13.766 182.437 13.794 182.344 13.794H177.5C177.5 13.8033 177.5 13.822 177.5 13.85C177.5 13.878 177.5 13.9013 177.5 13.92C177.518 14.3027 177.602 14.662 177.752 14.998C177.901 15.3247 178.116 15.5907 178.396 15.796C178.676 16.0013 179.012 16.104 179.404 16.104C179.74 16.104 180.02 16.0527 180.244 15.95C180.468 15.8473 180.65 15.7353 180.79 15.614C180.93 15.4833 181.023 15.3853 181.07 15.32C181.154 15.1987 181.219 15.1287 181.266 15.11C181.312 15.082 181.387 15.068 181.49 15.068H182.162C182.255 15.068 182.33 15.096 182.386 15.152C182.451 15.1987 182.479 15.2687 182.47 15.362C182.46 15.502 182.386 15.6747 182.246 15.88C182.106 16.076 181.905 16.272 181.644 16.468C181.382 16.664 181.065 16.8273 180.692 16.958C180.318 17.0793 179.889 17.14 179.404 17.14ZM177.5 12.828H181.336V12.786C181.336 12.366 181.256 11.9927 181.098 11.666C180.948 11.3393 180.729 11.0827 180.44 10.896C180.15 10.7 179.805 10.602 179.404 10.602C179.002 10.602 178.657 10.7 178.368 10.896C178.088 11.0827 177.873 11.3393 177.724 11.666C177.574 11.9927 177.5 12.366 177.5 12.786V12.828ZM183.822 17C183.728 17 183.649 16.972 183.584 16.916C183.528 16.8507 183.5 16.7713 183.5 16.678V10.056C183.5 9.96267 183.528 9.88333 183.584 9.818C183.649 9.75267 183.728 9.72 183.822 9.72H184.466C184.559 9.72 184.638 9.75267 184.704 9.818C184.769 9.88333 184.802 9.96267 184.802 10.056V10.672C184.988 10.3547 185.245 10.1167 185.572 9.958C185.898 9.79933 186.29 9.72 186.748 9.72H187.308C187.401 9.72 187.476 9.75267 187.532 9.818C187.588 9.874 187.616 9.94867 187.616 10.042V10.616C187.616 10.7093 187.588 10.784 187.532 10.84C187.476 10.896 187.401 10.924 187.308 10.924H186.468C185.964 10.924 185.567 11.0733 185.278 11.372C184.988 11.6613 184.844 12.058 184.844 12.562V16.678C184.844 16.7713 184.811 16.8507 184.746 16.916C184.68 16.972 184.601 17 184.508 17H183.822ZM190.745 17C190.643 17 190.563 16.972 190.507 16.916C190.451 16.8507 190.423 16.7713 190.423 16.678V7.536C190.423 7.43333 190.451 7.354 190.507 7.298C190.563 7.23267 190.643 7.2 190.745 7.2H194.301C194.992 7.2 195.589 7.312 196.093 7.536C196.607 7.76 197.003 8.096 197.283 8.544C197.563 8.98267 197.703 9.53333 197.703 10.196C197.703 10.8587 197.563 11.4093 197.283 11.848C197.003 12.2867 196.607 12.618 196.093 12.842C195.589 13.066 194.992 13.178 194.301 13.178H191.823V16.678C191.823 16.7713 191.791 16.8507 191.725 16.916C191.669 16.972 191.59 17 191.487 17H190.745ZM191.809 12.002H194.231C194.922 12.002 195.44 11.848 195.785 11.54C196.131 11.232 196.303 10.784 196.303 10.196C196.303 9.61733 196.135 9.16933 195.799 8.852C195.463 8.53467 194.941 8.376 194.231 8.376H191.809V12.002ZM201.27 17.14C200.561 17.14 199.968 17.0047 199.492 16.734C199.016 16.4633 198.652 16.09 198.4 15.614C198.148 15.1287 198.008 14.578 197.98 13.962C197.971 13.8033 197.966 13.6027 197.966 13.36C197.966 13.108 197.971 12.9073 197.98 12.758C198.008 12.1327 198.148 11.582 198.4 11.106C198.662 10.63 199.03 10.2567 199.506 9.986C199.982 9.71533 200.57 9.58 201.27 9.58C201.97 9.58 202.558 9.71533 203.034 9.986C203.51 10.2567 203.874 10.63 204.126 11.106C204.388 11.582 204.532 12.1327 204.56 12.758C204.57 12.9073 204.574 13.108 204.574 13.36C204.574 13.6027 204.57 13.8033 204.56 13.962C204.532 14.578 204.392 15.1287 204.14 15.614C203.888 16.09 203.524 16.4633 203.048 16.734C202.572 17.0047 201.98 17.14 201.27 17.14ZM201.27 16.062C201.849 16.062 202.311 15.88 202.656 15.516C203.002 15.1427 203.188 14.6013 203.216 13.892C203.226 13.752 203.23 13.5747 203.23 13.36C203.23 13.1453 203.226 12.968 203.216 12.828C203.188 12.1187 203.002 11.582 202.656 11.218C202.311 10.8447 201.849 10.658 201.27 10.658C200.692 10.658 200.225 10.8447 199.87 11.218C199.525 11.582 199.343 12.1187 199.324 12.828C199.315 12.968 199.31 13.1453 199.31 13.36C199.31 13.5747 199.315 13.752 199.324 13.892C199.343 14.6013 199.525 15.1427 199.87 15.516C200.225 15.88 200.692 16.062 201.27 16.062ZM205.809 17C205.716 17 205.637 16.972 205.571 16.916C205.515 16.8507 205.487 16.7713 205.487 16.678V10.056C205.487 9.96267 205.515 9.88333 205.571 9.818C205.637 9.75267 205.716 9.72 205.809 9.72H206.453C206.547 9.72 206.626 9.75267 206.691 9.818C206.757 9.88333 206.789 9.96267 206.789 10.056V10.672C206.976 10.3547 207.233 10.1167 207.559 9.958C207.886 9.79933 208.278 9.72 208.735 9.72H209.295C209.389 9.72 209.463 9.75267 209.519 9.818C209.575 9.874 209.603 9.94867 209.603 10.042V10.616C209.603 10.7093 209.575 10.784 209.519 10.84C209.463 10.896 209.389 10.924 209.295 10.924H208.455C207.951 10.924 207.555 11.0733 207.265 11.372C206.976 11.6613 206.831 12.058 206.831 12.562V16.678C206.831 16.7713 206.799 16.8507 206.733 16.916C206.668 16.972 206.589 17 206.495 17H205.809ZM212.808 17C212.285 17 211.86 16.902 211.534 16.706C211.207 16.5007 210.969 16.216 210.82 15.852C210.67 15.4787 210.596 15.04 210.596 14.536V10.84H209.504C209.41 10.84 209.331 10.812 209.266 10.756C209.21 10.6907 209.182 10.6113 209.182 10.518V10.042C209.182 9.94867 209.21 9.874 209.266 9.818C209.331 9.75267 209.41 9.72 209.504 9.72H210.596V7.382C210.596 7.28867 210.624 7.214 210.68 7.158C210.745 7.09267 210.824 7.06 210.918 7.06H211.576C211.669 7.06 211.744 7.09267 211.8 7.158C211.865 7.214 211.898 7.28867 211.898 7.382V9.72H213.634C213.727 9.72 213.802 9.75267 213.858 9.818C213.923 9.874 213.956 9.94867 213.956 10.042V10.518C213.956 10.6113 213.923 10.6907 213.858 10.756C213.802 10.812 213.727 10.84 213.634 10.84H211.898V14.438C211.898 14.8767 211.972 15.222 212.122 15.474C212.271 15.726 212.537 15.852 212.92 15.852H213.774C213.867 15.852 213.942 15.8847 213.998 15.95C214.063 16.006 214.096 16.0807 214.096 16.174V16.678C214.096 16.7713 214.063 16.8507 213.998 16.916C213.942 16.972 213.867 17 213.774 17H212.808ZM216.624 17.14C216.158 17.14 215.733 17.0467 215.35 16.86C214.968 16.6733 214.66 16.4213 214.426 16.104C214.193 15.7867 214.076 15.4273 214.076 15.026C214.076 14.382 214.338 13.8687 214.86 13.486C215.383 13.1033 216.064 12.8513 216.904 12.73L218.99 12.436V12.03C218.99 11.582 218.86 11.232 218.598 10.98C218.346 10.728 217.931 10.602 217.352 10.602C216.932 10.602 216.592 10.686 216.33 10.854C216.078 11.022 215.901 11.2367 215.798 11.498C215.742 11.638 215.644 11.708 215.504 11.708H214.874C214.772 11.708 214.692 11.68 214.636 11.624C214.59 11.5587 214.566 11.484 214.566 11.4C214.566 11.26 214.618 11.0873 214.72 10.882C214.832 10.6767 215 10.476 215.224 10.28C215.448 10.084 215.733 9.92067 216.078 9.79C216.433 9.65 216.862 9.58 217.366 9.58C217.926 9.58 218.398 9.65467 218.78 9.804C219.163 9.944 219.462 10.1353 219.676 10.378C219.9 10.6207 220.059 10.896 220.152 11.204C220.255 11.512 220.306 11.8247 220.306 12.142V16.678C220.306 16.7713 220.274 16.8507 220.208 16.916C220.152 16.972 220.078 17 219.984 17H219.34C219.238 17 219.158 16.972 219.102 16.916C219.046 16.8507 219.018 16.7713 219.018 16.678V16.076C218.897 16.244 218.734 16.412 218.528 16.58C218.323 16.7387 218.066 16.874 217.758 16.986C217.45 17.0887 217.072 17.14 216.624 17.14ZM216.918 16.09C217.301 16.09 217.651 16.0107 217.968 15.852C218.286 15.684 218.533 15.4273 218.71 15.082C218.897 14.7367 218.99 14.3027 218.99 13.78V13.388L217.366 13.626C216.704 13.7193 216.204 13.878 215.868 14.102C215.532 14.3167 215.364 14.592 215.364 14.928C215.364 15.1893 215.439 15.4087 215.588 15.586C215.747 15.754 215.943 15.88 216.176 15.964C216.419 16.048 216.666 16.09 216.918 16.09ZM221.815 17C221.722 17 221.642 16.972 221.577 16.916C221.521 16.8507 221.493 16.7713 221.493 16.678V7.382C221.493 7.28867 221.521 7.214 221.577 7.158C221.642 7.09267 221.722 7.06 221.815 7.06H222.473C222.576 7.06 222.655 7.09267 222.711 7.158C222.767 7.214 222.795 7.28867 222.795 7.382V16.678C222.795 16.7713 222.767 16.8507 222.711 16.916C222.655 16.972 222.576 17 222.473 17H221.815Z" fill="#8F8F8F"/>
</g>
<defs>
<clipPath id="clip0_156_15">
<rect width="224" height="24" fill="white"/>
</clipPath>
</defs>
</svg>
