<svg width="250" height="250" viewBox="0 0 250 250" fill="none" xmlns="http://www.w3.org/2000/svg">
<path d="M96.4971 0.400976C45.5562 7.3724 7.31966 47.2091 0.905794 99.9928C-1.68442 121.173 1.27582 141.29 9.84821 160.279C27.0547 198.522 63.5644 218.042 97.9156 207.353C124.681 199.053 144.91 171.101 144.91 142.352C144.91 136.045 143.553 133.124 140.531 132.858C138.496 132.659 136.831 133.854 120.796 146.602C101.986 161.607 99.5807 163.068 94.277 162.404C84.5945 161.142 77.1939 150.32 72.3834 130.401C71.0267 124.891 70.7183 121.77 70.4716 112.143C70.1633 99.2624 70.8417 92.4902 73.6786 81.9335C83.176 46.5452 112.347 19.7882 150.09 11.9536C153.42 11.2233 156.257 10.5593 156.38 10.3602C156.751 9.96179 147.623 6.37648 140.716 4.25186C130.478 1.13132 121.783 -0.0637857 109.572 0.00260886C103.404 0.0690034 97.5456 0.268187 96.4971 0.400976Z" fill="#4EA174"/>
<path d="M163.719 40.8352C145.402 43.4909 133.685 49.6656 122.214 62.679C111.359 74.962 105.315 90.2327 105.192 105.835C105.13 113.803 105.686 115.728 108.276 116.791C110.496 117.72 111.729 116.99 123.139 108.026C128.812 103.512 136.583 97.4033 140.283 94.4156C148.301 88.1081 150.459 86.8466 154.16 86.1826C166.556 84.1244 176.978 99.7271 180.123 125.09C180.987 132.327 180.493 148.793 179.137 155.963C175.56 175.218 167.604 191.949 155.393 206.025C141.764 221.628 120.24 234.11 98.7166 238.824L92.9811 240.085L95.9414 241.413C110.064 247.986 129.553 251.107 146.327 249.646C163.41 248.185 175.93 244.401 190.484 236.5C201.462 230.591 209.109 224.814 217.558 216.05C230.448 202.771 238.403 189.625 244.385 171.898C248.949 158.287 250.059 150.917 249.998 134.385C249.998 122.567 249.751 119.446 248.641 113.869C240.994 76.8874 217.497 49.9312 186.229 42.3622C181.234 41.1671 167.727 40.2376 163.719 40.8352Z" fill="#4EA174"/>
</svg>
